<svg width="448" height="448" viewBox="0 0 448 448" fill="none" xmlns="http://www.w3.org/2000/svg">
<path d="M404.25 0H43.75C19.5875 0 0 19.5875 0 43.75V404.25C0 428.412 19.5875 448 43.75 448H404.25C428.412 448 448 428.412 448 404.25V43.75C448 19.5875 428.412 0 404.25 0Z" fill="#3178C6"/>
<path fill-rule="evenodd" clip-rule="evenodd" d="M277.375 356.125V399.875C284.462 403.55 293.125 406.262 302.75 408.1C312.375 409.937 322.875 410.812 333.375 410.812C343.875 410.812 353.5 409.85 363.125 407.837C372.75 405.825 380.625 402.5 387.625 398.212C394.712 393.575 400.75 387.713 404.25 379.838C407.75 371.963 410.462 363.213 410.462 351.838C410.462 343.875 409.237 336.963 406.875 330.838C404.512 324.713 401.1 319.463 396.375 315.088C391.912 310.45 386.75 306.338 380.625 302.838C374.5 299.338 367.5 295.663 359.625 292.338C353.85 289.975 349.125 287.7 343.875 285.425C339.325 283.15 335.387 280.875 332.5 278.6C329.262 276.237 326.812 273.788 325.062 271.25C323.312 268.625 322.437 265.738 322.437 262.5C322.437 259.525 323.216 256.813 324.8 254.363C326.384 251.913 328.562 249.9 331.362 248.15C334.162 246.4 337.662 245.088 341.862 244.125C345.975 243.163 350.525 242.725 355.862 242.725C359.537 242.725 363.387 242.996 367.237 243.548C371.262 244.099 375.375 244.947 379.487 246.085C383.6 247.222 387.625 248.623 391.737 250.373C395.587 252.123 399.175 254.135 402.237 256.41V215.285C395.587 212.748 388.237 210.823 380.362 209.598C372.487 208.373 363.737 207.76 353.237 207.76C342.737 207.76 333.112 208.898 323.487 211.085C313.862 213.273 305.987 216.773 298.987 221.585C291.9 226.31 286.737 232.085 282.362 239.96C278.25 247.31 276.237 255.71 276.237 266.21C276.237 279.335 280 290.71 287.612 299.46C295.137 309.085 306.862 316.085 321.737 323.085C327.775 325.535 333.112 327.985 338.362 330.348C343.612 332.71 347.987 335.16 351.487 337.698C355.25 340.235 358.225 343.035 360.237 346.01C362.425 348.985 363.562 352.485 363.562 356.51C363.562 359.31 362.88 361.935 361.55 364.385C360.22 366.835 358.137 368.935 355.337 370.685C352.537 372.435 349.125 373.835 344.837 374.885C340.725 375.847 336.087 376.373 329.962 376.373C320.337 376.373 310.712 374.71 301.962 371.385C292.337 368.06 283.587 363.072 275.712 356.51L277.375 356.125ZM203.875 248.5H259.875V212.625H103.25V248.5H159.25V408.625H203.875V248.5Z" fill="white"/>
</svg>
